<mxfile host="app.diagrams.net" modified="2024-01-12T20:07:58.788Z" agent="Mozilla/5.0 (Windows NT 10.0; Win64; x64) AppleWebKit/537.36 (KHTML, like Gecko) Chrome/120.0.0.0 Safari/537.36" etag="JfaqvTi60O3CJjYPikJl" version="22.1.18" type="google">
  <diagram name="Page-1" id="13e1069c-82ec-6db2-03f1-153e76fe0fe0">
    <mxGraphModel grid="1" page="1" gridSize="10" guides="1" tooltips="1" connect="1" arrows="1" fold="1" pageScale="1" pageWidth="1100" pageHeight="850" background="none" math="0" shadow="0">
      <root>
        <mxCell id="0" />
        <mxCell id="1" parent="0" />
        <mxCell id="8Bl4F8kECEnZZEZJFdi2-1" value="loop" style="shape=umlFrame;whiteSpace=wrap;html=1;pointerEvents=0;" vertex="1" parent="1">
          <mxGeometry x="80" y="60" width="280" height="60" as="geometry" />
        </mxCell>
        <mxCell id="PkfD5kEkeAPCx4ZolnPc-8" value=":Sensoren" style="shape=umlLifeline;perimeter=lifelinePerimeter;whiteSpace=wrap;html=1;container=1;dropTarget=0;collapsible=0;recursiveResize=0;outlineConnect=0;portConstraint=eastwest;newEdgeStyle={&quot;curved&quot;:0,&quot;rounded&quot;:0};" vertex="1" parent="1">
          <mxGeometry x="100" y="10" width="100" height="340" as="geometry" />
        </mxCell>
        <mxCell id="PkfD5kEkeAPCx4ZolnPc-11" value="" style="html=1;points=[[0,0,0,0,5],[0,1,0,0,-5],[1,0,0,0,5],[1,1,0,0,-5]];perimeter=orthogonalPerimeter;outlineConnect=0;targetShapes=umlLifeline;portConstraint=eastwest;newEdgeStyle={&quot;curved&quot;:0,&quot;rounded&quot;:0};" vertex="1" parent="PkfD5kEkeAPCx4ZolnPc-8">
          <mxGeometry x="45" y="70" width="10" height="220" as="geometry" />
        </mxCell>
        <mxCell id="PkfD5kEkeAPCx4ZolnPc-9" value=":zentrale Steuerungseinheit" style="shape=umlLifeline;perimeter=lifelinePerimeter;whiteSpace=wrap;html=1;container=1;dropTarget=0;collapsible=0;recursiveResize=0;outlineConnect=0;portConstraint=eastwest;newEdgeStyle={&quot;curved&quot;:0,&quot;rounded&quot;:0};" vertex="1" parent="1">
          <mxGeometry x="495" y="10" width="110" height="340" as="geometry" />
        </mxCell>
        <mxCell id="8Bl4F8kECEnZZEZJFdi2-13" value="" style="html=1;points=[[0,0,0,0,5],[0,1,0,0,-5],[1,0,0,0,5],[1,1,0,0,-5]];perimeter=orthogonalPerimeter;outlineConnect=0;targetShapes=umlLifeline;portConstraint=eastwest;newEdgeStyle={&quot;curved&quot;:0,&quot;rounded&quot;:0};" vertex="1" parent="PkfD5kEkeAPCx4ZolnPc-9">
          <mxGeometry x="50" y="100" width="10" height="70" as="geometry" />
        </mxCell>
        <mxCell id="PkfD5kEkeAPCx4ZolnPc-10" value=":Notbremsung" style="shape=umlLifeline;perimeter=lifelinePerimeter;whiteSpace=wrap;html=1;container=1;dropTarget=0;collapsible=0;recursiveResize=0;outlineConnect=0;portConstraint=eastwest;newEdgeStyle={&quot;curved&quot;:0,&quot;rounded&quot;:0};" vertex="1" parent="1">
          <mxGeometry x="760" y="10" width="100" height="340" as="geometry" />
        </mxCell>
        <mxCell id="PkfD5kEkeAPCx4ZolnPc-12" value=":Objekterkennung" style="shape=umlLifeline;perimeter=lifelinePerimeter;whiteSpace=wrap;html=1;container=1;dropTarget=0;collapsible=0;recursiveResize=0;outlineConnect=0;portConstraint=eastwest;newEdgeStyle={&quot;curved&quot;:0,&quot;rounded&quot;:0};" vertex="1" parent="1">
          <mxGeometry x="280" y="10" width="120" height="340" as="geometry" />
        </mxCell>
        <mxCell id="8Bl4F8kECEnZZEZJFdi2-2" value="Sensordaten" style="html=1;verticalAlign=bottom;endArrow=block;curved=0;rounded=0;edgeStyle=orthogonalEdgeStyle;" edge="1" parent="1" target="PkfD5kEkeAPCx4ZolnPc-12">
          <mxGeometry width="80" relative="1" as="geometry">
            <mxPoint x="150" y="80" as="sourcePoint" />
            <mxPoint x="230" y="80" as="targetPoint" />
            <Array as="points">
              <mxPoint x="280" y="80" />
              <mxPoint x="280" y="80" />
            </Array>
          </mxGeometry>
        </mxCell>
        <mxCell id="8Bl4F8kECEnZZEZJFdi2-8" value="30ms" style="edgeLabel;html=1;align=center;verticalAlign=middle;resizable=0;points=[];" vertex="1" connectable="0" parent="8Bl4F8kECEnZZEZJFdi2-2">
          <mxGeometry x="0.5243" y="2" relative="1" as="geometry">
            <mxPoint x="1" y="-6" as="offset" />
          </mxGeometry>
        </mxCell>
        <mxCell id="8Bl4F8kECEnZZEZJFdi2-3" value="" style="html=1;points=[[0,0,0,0,5],[0,1,0,0,-5],[1,0,0,0,5],[1,1,0,0,-5]];perimeter=orthogonalPerimeter;outlineConnect=0;targetShapes=umlLifeline;portConstraint=eastwest;newEdgeStyle={&quot;curved&quot;:0,&quot;rounded&quot;:0};" vertex="1" parent="1">
          <mxGeometry x="335" y="80" width="10" height="30" as="geometry" />
        </mxCell>
        <mxCell id="8Bl4F8kECEnZZEZJFdi2-7" style="edgeStyle=orthogonalEdgeStyle;rounded=0;orthogonalLoop=1;jettySize=auto;html=1;dashed=1;endArrow=none;endFill=0;" edge="1" parent="1" source="8Bl4F8kECEnZZEZJFdi2-6" target="8Bl4F8kECEnZZEZJFdi2-3">
          <mxGeometry relative="1" as="geometry">
            <Array as="points">
              <mxPoint x="320" y="100" />
              <mxPoint x="320" y="100" />
            </Array>
          </mxGeometry>
        </mxCell>
        <mxCell id="8Bl4F8kECEnZZEZJFdi2-6" value="&lt;font style=&quot;font-size: 9px;&quot;&gt;Daten auswerten&lt;/font&gt;" style="shape=note;size=20;whiteSpace=wrap;html=1;align=left;" vertex="1" parent="1">
          <mxGeometry x="195" y="85" width="100" height="30" as="geometry" />
        </mxCell>
        <mxCell id="8Bl4F8kECEnZZEZJFdi2-9" value="Objekt erkannt" style="html=1;verticalAlign=bottom;endArrow=block;curved=0;rounded=0;edgeStyle=orthogonalEdgeStyle;" edge="1" parent="1" target="PkfD5kEkeAPCx4ZolnPc-9">
          <mxGeometry width="80" relative="1" as="geometry">
            <mxPoint x="340" y="110" as="sourcePoint" />
            <mxPoint x="420" y="110" as="targetPoint" />
            <Array as="points">
              <mxPoint x="490" y="110" />
              <mxPoint x="490" y="110" />
            </Array>
          </mxGeometry>
        </mxCell>
        <mxCell id="8Bl4F8kECEnZZEZJFdi2-10" value="5ms" style="text;html=1;align=center;verticalAlign=middle;resizable=0;points=[];autosize=1;strokeColor=none;fillColor=none;" vertex="1" parent="1">
          <mxGeometry x="475" y="87" width="50" height="30" as="geometry" />
        </mxCell>
        <mxCell id="8Bl4F8kECEnZZEZJFdi2-12" value="alt" style="shape=umlFrame;whiteSpace=wrap;html=1;pointerEvents=0;" vertex="1" parent="1">
          <mxGeometry x="520" y="70" width="305" height="250" as="geometry" />
        </mxCell>
        <mxCell id="PkfD5kEkeAPCx4ZolnPc-24" value="" style="html=1;points=[[0,0,0,0,5],[0,1,0,0,-5],[1,0,0,0,5],[1,1,0,0,-5]];perimeter=orthogonalPerimeter;outlineConnect=0;targetShapes=umlLifeline;portConstraint=eastwest;newEdgeStyle={&quot;curved&quot;:0,&quot;rounded&quot;:0};" vertex="1" parent="1">
          <mxGeometry x="545" y="224.5" width="10" height="80" as="geometry" />
        </mxCell>
        <mxCell id="PkfD5kEkeAPCx4ZolnPc-26" value="Notbremsung einleiten&amp;nbsp; 10ms" style="html=1;verticalAlign=bottom;endArrow=block;curved=0;rounded=0;edgeStyle=orthogonalEdgeStyle;" edge="1" parent="1" target="PkfD5kEkeAPCx4ZolnPc-10">
          <mxGeometry width="80" relative="1" as="geometry">
            <mxPoint x="550" y="110" as="sourcePoint" />
            <mxPoint x="630" y="110" as="targetPoint" />
            <Array as="points">
              <mxPoint x="550" y="111" />
            </Array>
          </mxGeometry>
        </mxCell>
        <mxCell id="PkfD5kEkeAPCx4ZolnPc-35" value="Geschwindigkeitsreduktion bestätigen&amp;nbsp; 5ms" style="html=1;verticalAlign=bottom;endArrow=open;dashed=1;endSize=8;curved=0;rounded=0;edgeStyle=orthogonalEdgeStyle;" edge="1" parent="1" target="PkfD5kEkeAPCx4ZolnPc-24">
          <mxGeometry relative="1" as="geometry">
            <mxPoint x="809.5" y="304.50800000000004" as="sourcePoint" />
            <mxPoint x="560" y="304.5" as="targetPoint" />
            <Array as="points">
              <mxPoint x="661" y="305" />
              <mxPoint x="580" y="305" />
              <mxPoint x="550" y="305" />
            </Array>
          </mxGeometry>
        </mxCell>
        <mxCell id="8Bl4F8kECEnZZEZJFdi2-15" value="" style="line;strokeWidth=2;html=1;" vertex="1" parent="1">
          <mxGeometry x="521" y="188" width="304" height="10" as="geometry" />
        </mxCell>
        <mxCell id="PkfD5kEkeAPCx4ZolnPc-36" value="Bestätigung der Notbremsung&amp;nbsp; 5ms" style="html=1;verticalAlign=bottom;endArrow=open;dashed=1;endSize=8;curved=0;rounded=0;edgeStyle=orthogonalEdgeStyle;" edge="1" parent="1" source="PkfD5kEkeAPCx4ZolnPc-10">
          <mxGeometry x="-0.0058" relative="1" as="geometry">
            <mxPoint x="630" y="180" as="sourcePoint" />
            <mxPoint x="550" y="180" as="targetPoint" />
            <Array as="points">
              <mxPoint x="600" y="180" />
              <mxPoint x="600" y="180" />
            </Array>
            <mxPoint as="offset" />
          </mxGeometry>
        </mxCell>
        <mxCell id="8Bl4F8kECEnZZEZJFdi2-17" value="Reduktion der Geschwindigkeit einleiten&amp;nbsp; 15ms" style="html=1;verticalAlign=bottom;endArrow=block;curved=0;rounded=0;edgeStyle=orthogonalEdgeStyle;" edge="1" parent="1">
          <mxGeometry width="80" relative="1" as="geometry">
            <mxPoint x="550" y="224.5" as="sourcePoint" />
            <mxPoint x="809.5" y="225.5" as="targetPoint" />
            <Array as="points">
              <mxPoint x="550" y="225.5" />
            </Array>
          </mxGeometry>
        </mxCell>
        <mxCell id="8Bl4F8kECEnZZEZJFdi2-18" value="[Kollision steht bevor?]" style="text;html=1;align=center;verticalAlign=middle;resizable=0;points=[];autosize=1;strokeColor=none;fillColor=none;" vertex="1" parent="1">
          <mxGeometry x="610" y="70" width="140" height="30" as="geometry" />
        </mxCell>
        <mxCell id="8Bl4F8kECEnZZEZJFdi2-21" value="[Vorsorgebremsung nötig?]" style="text;html=1;align=center;verticalAlign=middle;resizable=0;points=[];autosize=1;strokeColor=none;fillColor=none;" vertex="1" parent="1">
          <mxGeometry x="595" y="188" width="170" height="30" as="geometry" />
        </mxCell>
      </root>
    </mxGraphModel>
  </diagram>
</mxfile>
